# xmcd
#
# Track frame offsets:
#	150
#	14943
#	32229
#	48552
#	72104
#	87954
#	98781
#	114854
#	132619
#	147121
#	162036
#
# Disc length: 2392 seconds
#
# Revision: 0
# Processed by: cddbd v1.5.2PL0 Copyright (c) Steve Scherf et al.
# Submitted via: audiograbber 1.83.01
#
DISCID=9609560b
DTITLE=The Mavericks - What A Crying Shame
DYEAR=1994
DGENRE=Country
TTITLE0=There Goes My Heart
TTITLE1=What A Crying Shame
TTITLE2=Pretend
TTITLE3=I Should Have Been True
TTITLE4=The Things You Said To Me
TTITLE5=Just A Memory
TTITLE6=All That Heaven Will Allow
TTITLE7=Neon Blue
TTITLE8=O What A Thrill
TTITLE9=Ain't Found Nobody
TTITLE10=The Losing Side Of Me
EXTD=
EXTT0=
EXTT1=
EXTT2=
EXTT3=
EXTT4=
EXTT5=
EXTT6=
EXTT7=
EXTT8=
EXTT9=
EXTT10=
PLAYORDER=
